<svg width="75" height="37" viewBox="0 0 75 37" fill="none" xmlns="http://www.w3.org/2000/svg">
<path d="M0.5 7.94318V1.09091H30.0057V7.94318H19.4205V36H11.1023V7.94318H0.5ZM52.9957 11.5568C52.8821 10.3068 52.3764 9.33523 51.4787 8.64205C50.5923 7.9375 49.3253 7.58523 47.6776 7.58523C46.5866 7.58523 45.6776 7.72727 44.9503 8.01136C44.223 8.29545 43.6776 8.6875 43.3139 9.1875C42.9503 9.67614 42.7628 10.2386 42.7514 10.875C42.7287 11.3977 42.831 11.858 43.0582 12.2557C43.2969 12.6534 43.6378 13.0057 44.081 13.3125C44.5355 13.608 45.081 13.8693 45.7173 14.0966C46.3537 14.3239 47.0696 14.5227 47.8651 14.6932L50.8651 15.375C52.5923 15.75 54.1151 16.25 55.4332 16.875C56.7628 17.5 57.8764 18.2443 58.7741 19.108C59.6832 19.9716 60.3707 20.9659 60.8366 22.0909C61.3026 23.2159 61.5412 24.4773 61.5526 25.875C61.5412 28.0795 60.9844 29.9716 59.8821 31.5511C58.7798 33.1307 57.1946 34.3409 55.1264 35.1818C53.0696 36.0227 50.5866 36.4432 47.6776 36.4432C44.7571 36.4432 42.2116 36.0057 40.0412 35.1307C37.8707 34.2557 36.1832 32.9261 34.9787 31.142C33.7741 29.358 33.1548 27.1023 33.1207 24.375H41.2003C41.2685 25.5 41.5696 26.4375 42.1037 27.1875C42.6378 27.9375 43.3707 28.5057 44.3026 28.892C45.2457 29.2784 46.3366 29.4716 47.5753 29.4716C48.7116 29.4716 49.6776 29.3182 50.473 29.0114C51.2798 28.7045 51.8991 28.2784 52.331 27.733C52.7628 27.1875 52.9844 26.5625 52.9957 25.858C52.9844 25.1989 52.7798 24.6364 52.3821 24.1705C51.9844 23.6932 51.3707 23.2841 50.5412 22.9432C49.723 22.5909 48.6776 22.267 47.4048 21.9716L43.7571 21.1193C40.7344 20.4261 38.3537 19.3068 36.6151 17.7614C34.8764 16.2045 34.0128 14.1023 34.0241 11.4545C34.0128 9.29545 34.5923 7.40341 35.7628 5.77841C36.9332 4.15341 38.5526 2.88636 40.6207 1.97727C42.6889 1.06818 45.0469 0.613635 47.6946 0.613635C50.3991 0.613635 52.7457 1.07386 54.7344 1.99432C56.7344 2.90341 58.2855 4.18182 59.3878 5.82955C60.4901 7.47727 61.0526 9.38636 61.0753 11.5568H52.9957Z" fill="black"/>
<path d="M70.5014 36.4943C69.2741 36.4943 68.223 36.0625 67.348 35.1989C66.4844 34.3352 66.0582 33.2898 66.0696 32.0625C66.0582 30.858 66.4844 29.8295 67.348 28.9773C68.223 28.1136 69.2741 27.6818 70.5014 27.6818C71.6605 27.6818 72.6832 28.1136 73.5696 28.9773C74.4673 29.8295 74.9219 30.858 74.9332 32.0625C74.9219 32.8807 74.706 33.625 74.2855 34.2955C73.8764 34.9659 73.3366 35.5 72.6662 35.8977C72.0071 36.2955 71.2855 36.4943 70.5014 36.4943Z" fill="#99F900"/>
</svg>
