<svg width="76" height="37" viewBox="0 0 76 37" fill="none" xmlns="http://www.w3.org/2000/svg">
<path d="M0.601562 7.94318V1.09091H30.1072V7.94318H19.522V36H11.2038V7.94318H0.601562ZM53.0973 11.5568C52.9837 10.3068 52.478 9.33523 51.5803 8.64205C50.6939 7.9375 49.4268 7.58523 47.7791 7.58523C46.6882 7.58523 45.7791 7.72727 45.0518 8.01136C44.3246 8.29545 43.7791 8.6875 43.4155 9.1875C43.0518 9.67614 42.8643 10.2386 42.853 10.875C42.8303 11.3977 42.9325 11.858 43.1598 12.2557C43.3984 12.6534 43.7393 13.0057 44.1825 13.3125C44.6371 13.608 45.1825 13.8693 45.8189 14.0966C46.4553 14.3239 47.1712 14.5227 47.9666 14.6932L50.9666 15.375C52.6939 15.75 54.2166 16.25 55.5348 16.875C56.8643 17.5 57.978 18.2443 58.8757 19.108C59.7848 19.9716 60.4723 20.9659 60.9382 22.0909C61.4041 23.2159 61.6428 24.4773 61.6541 25.875C61.6428 28.0795 61.0859 29.9716 59.9837 31.5511C58.8814 33.1307 57.2962 34.3409 55.228 35.1818C53.1712 36.0227 50.6882 36.4432 47.7791 36.4432C44.8587 36.4432 42.3132 36.0057 40.1428 35.1307C37.9723 34.2557 36.2848 32.9261 35.0803 31.142C33.8757 29.358 33.2564 27.1023 33.2223 24.375H41.3018C41.37 25.5 41.6712 26.4375 42.2053 27.1875C42.7393 27.9375 43.4723 28.5057 44.4041 28.892C45.3473 29.2784 46.4382 29.4716 47.6768 29.4716C48.8132 29.4716 49.7791 29.3182 50.5746 29.0114C51.3814 28.7045 52.0007 28.2784 52.4325 27.733C52.8643 27.1875 53.0859 26.5625 53.0973 25.858C53.0859 25.1989 52.8814 24.6364 52.4837 24.1705C52.0859 23.6932 51.4723 23.2841 50.6428 22.9432C49.8246 22.5909 48.7791 22.267 47.5064 21.9716L43.8587 21.1193C40.8359 20.4261 38.4553 19.3068 36.7166 17.7614C34.978 16.2045 34.1143 14.1023 34.1257 11.4545C34.1143 9.29545 34.6939 7.40341 35.8643 5.77841C37.0348 4.15341 38.6541 2.88636 40.7223 1.97727C42.7905 1.06818 45.1484 0.613635 47.7962 0.613635C50.5007 0.613635 52.8473 1.07386 54.8359 1.99432C56.8359 2.90341 58.3871 4.18182 59.4893 5.82955C60.5916 7.47727 61.1541 9.38636 61.1768 11.5568H53.0973Z" fill="#D2CDC4"/>
<path d="M70.603 36.4943C69.3757 36.4943 68.3246 36.0625 67.4496 35.1989C66.5859 34.3352 66.1598 33.2898 66.1712 32.0625C66.1598 30.858 66.5859 29.8295 67.4496 28.9773C68.3246 28.1136 69.3757 27.6818 70.603 27.6818C71.7621 27.6818 72.7848 28.1136 73.6712 28.9773C74.5689 29.8295 75.0234 30.858 75.0348 32.0625C75.0234 32.8807 74.8075 33.625 74.3871 34.2955C73.978 34.9659 73.4382 35.5 72.7678 35.8977C72.1087 36.2955 71.3871 36.4943 70.603 36.4943Z" fill="#66939B"/>
</svg>
