<svg width="99" height="48" viewBox="0 0 99 48" fill="none" xmlns="http://www.w3.org/2000/svg">
<g clip-path="url(#clip0_479_7)">
<path d="M11.6016 12.9432V6.09091H41.1072V12.9432H30.522V41H22.2038V12.9432H11.6016ZM64.0973 16.5568C63.9837 15.3068 63.478 14.3352 62.5803 13.642C61.6939 12.9375 60.4268 12.5852 58.7791 12.5852C57.6882 12.5852 56.7791 12.7273 56.0518 13.0114C55.3246 13.2955 54.7791 13.6875 54.4155 14.1875C54.0518 14.6761 53.8643 15.2386 53.853 15.875C53.8303 16.3977 53.9325 16.858 54.1598 17.2557C54.3984 17.6534 54.7393 18.0057 55.1825 18.3125C55.6371 18.608 56.1825 18.8693 56.8189 19.0966C57.4553 19.3239 58.1712 19.5227 58.9666 19.6932L61.9666 20.375C63.6939 20.75 65.2166 21.25 66.5348 21.875C67.8643 22.5 68.978 23.2443 69.8757 24.108C70.7848 24.9716 71.4723 25.9659 71.9382 27.0909C72.4041 28.2159 72.6428 29.4773 72.6541 30.875C72.6428 33.0795 72.0859 34.9716 70.9837 36.5511C69.8814 38.1307 68.2962 39.3409 66.228 40.1818C64.1712 41.0227 61.6882 41.4432 58.7791 41.4432C55.8587 41.4432 53.3132 41.0057 51.1428 40.1307C48.9723 39.2557 47.2848 37.9261 46.0803 36.142C44.8757 34.358 44.2564 32.1023 44.2223 29.375H52.3018C52.37 30.5 52.6712 31.4375 53.2053 32.1875C53.7393 32.9375 54.4723 33.5057 55.4041 33.892C56.3473 34.2784 57.4382 34.4716 58.6768 34.4716C59.8132 34.4716 60.7791 34.3182 61.5746 34.0114C62.3814 33.7045 63.0007 33.2784 63.4325 32.733C63.8643 32.1875 64.0859 31.5625 64.0973 30.858C64.0859 30.1989 63.8814 29.6364 63.4837 29.1705C63.0859 28.6932 62.4723 28.2841 61.6428 27.9432C60.8246 27.5909 59.7791 27.267 58.5064 26.9716L54.8587 26.1193C51.8359 25.4261 49.4553 24.3068 47.7166 22.7614C45.978 21.2045 45.1143 19.1023 45.1257 16.4545C45.1143 14.2955 45.6939 12.4034 46.8643 10.7784C48.0348 9.15341 49.6541 7.88636 51.7223 6.97727C53.7905 6.06818 56.1484 5.61364 58.7962 5.61364C61.5007 5.61364 63.8473 6.07386 65.8359 6.99432C67.8359 7.90341 69.3871 9.18182 70.4893 10.8295C71.5916 12.4773 72.1541 14.3864 72.1768 16.5568H64.0973Z" fill="black"/>
<path d="M81.603 41.4943C80.3757 41.4943 79.3246 41.0625 78.4496 40.1989C77.5859 39.3352 77.1598 38.2898 77.1712 37.0625C77.1598 35.858 77.5859 34.8295 78.4496 33.9773C79.3246 33.1136 80.3757 32.6818 81.603 32.6818C82.7621 32.6818 83.7848 33.1136 84.6712 33.9773C85.5689 34.8295 86.0234 35.858 86.0348 37.0625C86.0234 37.8807 85.8075 38.625 85.3871 39.2955C84.978 39.9659 84.4382 40.5 83.7678 40.8977C83.1087 41.2955 82.3871 41.4943 81.603 41.4943Z" fill="#66939B"/>
</g>
<defs>
<clipPath id="clip0_479_7">
<rect width="99" height="48" fill="white"/>
</clipPath>
</defs>
</svg>
